<?xml version="1.0" encoding="UTF-8" standalone="no"?>
<svg
   xmlns:dc="http://purl.org/dc/elements/1.1/"
   xmlns:cc="http://creativecommons.org/ns#"
   xmlns:rdf="http://www.w3.org/1999/02/22-rdf-syntax-ns#"
   xmlns:svg="http://www.w3.org/2000/svg"
   xmlns="http://www.w3.org/2000/svg"
   xmlns:sodipodi="http://sodipodi.sourceforge.net/DTD/sodipodi-0.dtd"
   xmlns:inkscape="http://www.inkscape.org/namespaces/inkscape"
   width="300"
   height="100"
   viewBox="0 0 79.374998 26.458334"
   version="1.1"
   id="svg8"
   inkscape:version="1.0.1 (3bc2e813f5, 2020-09-07)"
   sodipodi:docname="str.split.svg">
  <defs
     id="defs2" />
  <sodipodi:namedview
     id="base"
     pagecolor="#ffffff"
     bordercolor="#666666"
     borderopacity="1.0"
     inkscape:pageopacity="0.0"
     inkscape:pageshadow="2"
     inkscape:zoom="2.8"
     inkscape:cx="155.85043"
     inkscape:cy="80.141425"
     inkscape:document-units="mm"
     inkscape:current-layer="layer1"
     inkscape:document-rotation="0"
     showgrid="false"
     units="px"
     showguides="true"
     inkscape:guide-bbox="true"
     inkscape:window-width="1920"
     inkscape:window-height="1009"
     inkscape:window-x="-8"
     inkscape:window-y="-8"
     inkscape:window-maximized="1">
    <sodipodi:guide
       position="1.3229113,25.135417"
       orientation="0,-1"
       id="guide1063" />
    <sodipodi:guide
       position="78.052083,25.135417"
       orientation="-1,0"
       id="guide1065"
       inkscape:label=""
       inkscape:locked="false"
       inkscape:color="rgb(0,0,255)" />
    <sodipodi:guide
       position="1.3229113,25.135418"
       orientation="1,0"
       id="guide1067" />
    <sodipodi:guide
       position="1.3229106,1.587499"
       orientation="0,-1"
       id="guide1069" />
  </sodipodi:namedview>
  <metadata
     id="metadata5">
    <rdf:RDF>
      <cc:Work
         rdf:about="">
        <dc:format>image/svg+xml</dc:format>
        <dc:type
           rdf:resource="http://purl.org/dc/dcmitype/StillImage" />
        <dc:title />
      </cc:Work>
    </rdf:RDF>
  </metadata>
  <g
     inkscape:label="Ebene 1"
     inkscape:groupmode="layer"
     id="layer1">
    <rect
       style="fill:#4d4d4d;fill-opacity:1;stroke:none;stroke-width:0.0530644;paint-order:stroke markers fill"
       id="rect833"
       width="13.229166"
       height="2.6458333"
       x="1.3229114"
       y="1.3229166" />
    <rect
       style="fill:#b8b8b8;fill-opacity:1;stroke:none;stroke-width:0.0530644;paint-order:stroke markers fill"
       id="rect833-5"
       width="13.229166"
       height="2.6458333"
       x="1.3229114"
       y="4.7624998" />
    <rect
       style="fill:#b8b8b8;fill-opacity:1;stroke:none;stroke-width:0.0530644;paint-order:stroke markers fill"
       id="rect833-5-8"
       width="13.229166"
       height="2.6458333"
       x="1.3229109"
       y="7.6729169" />
    <rect
       style="fill:#b8b8b8;fill-opacity:1;stroke:none;stroke-width:0.0530644;paint-order:stroke markers fill"
       id="rect833-5-8-9"
       width="13.229166"
       height="2.6458333"
       x="1.3229109"
       y="10.583333" />
    <rect
       style="fill:#b8b8b8;fill-opacity:1;stroke:none;stroke-width:0.0530644;paint-order:stroke markers fill"
       id="rect833-3"
       width="13.229166"
       height="2.6458333"
       x="1.3229109"
       y="13.49375" />
    <rect
       style="fill:#b8b8b8;fill-opacity:1;stroke:none;stroke-width:0.0530644;paint-order:stroke markers fill"
       id="rect833-5-1"
       width="13.229166"
       height="2.6458333"
       x="1.3229109"
       y="16.404167" />
    <rect
       style="fill:#b8b8b8;fill-opacity:1;stroke:none;stroke-width:0.0530644;paint-order:stroke markers fill"
       id="rect833-5-8-1"
       width="13.229166"
       height="2.6458333"
       x="1.3229103"
       y="19.314585" />
    <rect
       style="fill:#b8b8b8;fill-opacity:1;stroke:none;stroke-width:0.0530644;paint-order:stroke markers fill"
       id="rect833-5-8-1-9"
       width="13.229166"
       height="2.6458333"
       x="1.3229107"
       y="22.225" />
    <rect
       style="fill:#12b603;fill-opacity:1;stroke:none;stroke-width:0.0530643;paint-order:stroke markers fill"
       id="rect833-0"
       width="13.229167"
       height="2.6458333"
       x="15.081244"
       y="1.322917" />
    <rect
       style="fill:#7dfd72;fill-opacity:1;stroke:none;stroke-width:0.0530643;paint-order:stroke markers fill"
       id="rect833-5-12"
       width="13.229167"
       height="2.6458333"
       x="15.081244"
       y="4.7625008" />
    <rect
       style="fill:#7dfd72;fill-opacity:1;stroke:none;stroke-width:0.0530643;paint-order:stroke markers fill"
       id="rect833-5-8-0"
       width="13.229167"
       height="2.6458333"
       x="15.081244"
       y="7.6729183" />
    <rect
       style="fill:#7dfd72;fill-opacity:1;stroke:none;stroke-width:0.0530643;paint-order:stroke markers fill"
       id="rect833-5-8-9-4"
       width="13.229167"
       height="2.6458333"
       x="15.081244"
       y="10.583334" />
    <rect
       style="fill:#7dfd72;fill-opacity:1;stroke:none;stroke-width:0.0530643;paint-order:stroke markers fill"
       id="rect833-3-5"
       width="13.229167"
       height="2.6458333"
       x="15.081244"
       y="13.493752" />
    <rect
       style="fill:#7dfd72;fill-opacity:1;stroke:none;stroke-width:0.0530643;paint-order:stroke markers fill"
       id="rect833-5-1-9"
       width="13.229167"
       height="2.6458333"
       x="15.081244"
       y="16.404169" />
    <rect
       style="fill:#7dfd72;fill-opacity:1;stroke:none;stroke-width:0.0530643;paint-order:stroke markers fill"
       id="rect833-5-8-1-2"
       width="13.229167"
       height="2.6458333"
       x="15.081244"
       y="19.314587" />
    <rect
       style="fill:#7dfd72;fill-opacity:1;stroke:none;stroke-width:0.0530643;paint-order:stroke markers fill"
       id="rect833-5-8-1-9-7"
       width="13.229167"
       height="2.6458333"
       x="15.081244"
       y="22.225" />
    <rect
       style="fill:#4d4d4d;fill-opacity:1;stroke:none;stroke-width:0.0530643;paint-order:stroke markers fill"
       id="rect833-0-3"
       width="13.229167"
       height="2.6458333"
       x="28.839579"
       y="1.322917" />
    <rect
       style="fill:#b8b8b8;fill-opacity:1;stroke:none;stroke-width:0.0530643;paint-order:stroke markers fill"
       id="rect833-5-12-1"
       width="13.229167"
       height="2.6458333"
       x="28.839579"
       y="4.7625012" />
    <rect
       style="fill:#b8b8b8;fill-opacity:1;stroke:none;stroke-width:0.0530643;paint-order:stroke markers fill"
       id="rect833-5-8-0-0"
       width="13.229167"
       height="2.6458333"
       x="28.839577"
       y="7.6729188" />
    <rect
       style="fill:#b8b8b8;fill-opacity:1;stroke:none;stroke-width:0.0530643;paint-order:stroke markers fill"
       id="rect833-5-8-9-4-2"
       width="13.229167"
       height="2.6458333"
       x="28.839577"
       y="10.583334" />
    <rect
       style="fill:#b8b8b8;fill-opacity:1;stroke:none;stroke-width:0.0530643;paint-order:stroke markers fill"
       id="rect833-3-5-8"
       width="13.229167"
       height="2.6458333"
       x="28.839577"
       y="13.493752" />
    <rect
       style="fill:#b8b8b8;fill-opacity:1;stroke:none;stroke-width:0.0530643;paint-order:stroke markers fill"
       id="rect833-5-1-9-3"
       width="13.229167"
       height="2.6458333"
       x="28.839577"
       y="16.404169" />
    <rect
       style="fill:#b8b8b8;fill-opacity:1;stroke:none;stroke-width:0.0530643;paint-order:stroke markers fill"
       id="rect833-5-8-1-2-8"
       width="13.229167"
       height="2.6458333"
       x="28.839577"
       y="19.314587" />
    <rect
       style="fill:#b8b8b8;fill-opacity:1;stroke:none;stroke-width:0.0530643;paint-order:stroke markers fill"
       id="rect833-5-8-1-9-7-6"
       width="13.229167"
       height="2.6458333"
       x="28.839577"
       y="22.224998" />
    <rect
       style="fill:#1d9bfb;fill-opacity:1;stroke:none;stroke-width:0.0530643;paint-order:stroke markers fill"
       id="rect833-0-3-2"
       width="13.229167"
       height="2.6458333"
       x="64.822922"
       y="1.3229164" />
    <rect
       style="fill:#72c1fd;fill-opacity:1;stroke:none;stroke-width:0.0530643;paint-order:stroke markers fill"
       id="rect833-5-12-1-9"
       width="13.229167"
       height="2.6458333"
       x="64.822922"
       y="4.7625003" />
    <rect
       style="fill:#72c1fd;fill-opacity:1;stroke:none;stroke-width:0.0530643;paint-order:stroke markers fill"
       id="rect833-5-8-0-0-4"
       width="13.229167"
       height="2.6458333"
       x="64.822922"
       y="7.6729178" />
    <rect
       style="fill:#72c1fd;fill-opacity:1;stroke:none;stroke-width:0.0530643;paint-order:stroke markers fill"
       id="rect833-5-8-9-4-2-8"
       width="13.229167"
       height="2.6458333"
       x="64.822922"
       y="10.583334" />
    <rect
       style="fill:#72c1fd;fill-opacity:1;stroke:none;stroke-width:0.0530643;paint-order:stroke markers fill"
       id="rect833-3-5-8-6"
       width="13.229167"
       height="2.6458333"
       x="64.822922"
       y="13.493752" />
    <rect
       style="fill:#72c1fd;fill-opacity:1;stroke:none;stroke-width:0.0530643;paint-order:stroke markers fill"
       id="rect833-5-1-9-3-4"
       width="13.229167"
       height="2.6458333"
       x="64.822922"
       y="16.404167" />
    <rect
       style="fill:#72c1fd;fill-opacity:1;stroke:none;stroke-width:0.0530643;paint-order:stroke markers fill"
       id="rect833-5-8-1-2-8-0"
       width="13.229167"
       height="2.6458333"
       x="64.822922"
       y="19.314587" />
    <rect
       style="fill:#72c1fd;fill-opacity:1;stroke:none;stroke-width:0.0530643;paint-order:stroke markers fill"
       id="rect833-5-8-1-9-7-6-5"
       width="13.229167"
       height="2.6458333"
       x="64.822922"
       y="22.224997" />
    <rect
       style="fill:#4d4d4d;fill-opacity:1;stroke:none;stroke-width:0.0530643;paint-order:stroke markers fill"
       id="rect833-0-3-6"
       width="13.229167"
       height="2.6458333"
       x="42.597912"
       y="1.3229172" />
    <rect
       style="fill:#b8b8b8;fill-opacity:1;stroke:none;stroke-width:0.0530643;paint-order:stroke markers fill"
       id="rect833-5-12-1-1"
       width="13.229167"
       height="2.6458333"
       x="42.597912"
       y="4.7625008" />
    <rect
       style="fill:#b8b8b8;fill-opacity:1;stroke:none;stroke-width:0.0530643;paint-order:stroke markers fill"
       id="rect833-5-8-0-0-8"
       width="13.229167"
       height="2.6458333"
       x="42.597908"
       y="7.6729183" />
    <rect
       style="fill:#b8b8b8;fill-opacity:1;stroke:none;stroke-width:0.0530643;paint-order:stroke markers fill"
       id="rect833-5-8-9-4-2-9"
       width="13.229167"
       height="2.6458333"
       x="42.597908"
       y="10.583334" />
    <rect
       style="fill:#b8b8b8;fill-opacity:1;stroke:none;stroke-width:0.0530643;paint-order:stroke markers fill"
       id="rect833-3-5-8-3"
       width="13.229167"
       height="2.6458333"
       x="42.597908"
       y="13.493752" />
    <rect
       style="fill:#b8b8b8;fill-opacity:1;stroke:none;stroke-width:0.0530643;paint-order:stroke markers fill"
       id="rect833-5-1-9-3-0"
       width="13.229167"
       height="2.6458333"
       x="42.597908"
       y="16.404169" />
    <rect
       style="fill:#b8b8b8;fill-opacity:1;stroke:none;stroke-width:0.0530643;paint-order:stroke markers fill"
       id="rect833-5-8-1-2-8-4"
       width="13.229167"
       height="2.6458333"
       x="42.597908"
       y="19.314587" />
    <rect
       style="fill:#b8b8b8;fill-opacity:1;stroke:none;stroke-width:0.0530643;paint-order:stroke markers fill"
       id="rect833-5-8-1-9-7-6-4"
       width="13.229167"
       height="2.6458333"
       x="42.597908"
       y="22.224998" />
    <rect
       style="fill:#000000;fill-opacity:1;stroke:none;stroke-width:0.0197096;paint-order:stroke markers fill"
       id="rect833-0-3-6-0"
       width="4.9136906"
       height="0.98273808"
       x="57.754757"
       y="13.077975" />
    <rect
       style="fill:#000000;fill-opacity:1;stroke:none;stroke-width:0.0197096;paint-order:stroke markers fill"
       id="rect833-0-3-6-0-7"
       width="4.9136906"
       height="0.98273808"
       x="11.1125"
       y="-60.702972"
       transform="rotate(90)" />
    <g
       aria-label="??_C_??"
       id="text878"
       style="font-size:2.07933px;line-height:1.25;font-family:sans-serif;stroke-width:0.264583">
      <path
         d="m 18.375805,5.5543621 q 0,0.099499 -0.03553,0.1776771 -0.03554,0.077163 -0.09341,0.1370652 -0.05686,0.057872 -0.130973,0.1086369 -0.07412,0.050765 -0.157371,0.098484 v 0.228442 H 17.776779 V 5.9950014 q 0.06599,-0.037566 0.142142,-0.082239 0.07716,-0.044673 0.125897,-0.090362 0.05889,-0.052796 0.09138,-0.1086368 0.03249,-0.056857 0.03249,-0.1441723 0,-0.1147287 -0.07818,-0.1705701 -0.07716,-0.056857 -0.200013,-0.056857 -0.109653,0 -0.208136,0.03452 -0.09747,0.03452 -0.154326,0.070055 h -0.01015 V 5.2396198 q 0.07107,-0.027413 0.179708,-0.048734 0.109652,-0.022337 0.207121,-0.022337 0.218289,0 0.344186,0.1066063 0.126912,0.105591 0.126912,0.2792069 z m -0.401043,1.1564242 h -0.20712 V 6.4965585 h 0.20712 z"
         style="stroke-width:0.264583"
         id="path1018" />
      <path
         d="m 19.509893,5.5543621 q 0,0.099499 -0.03554,0.1776771 -0.03554,0.077163 -0.09341,0.1370652 -0.05686,0.057872 -0.130974,0.1086369 -0.07412,0.050765 -0.157371,0.098484 v 0.228442 H 18.910867 V 5.9950014 q 0.06599,-0.037566 0.142142,-0.082239 0.07716,-0.044673 0.125897,-0.090362 0.05889,-0.052796 0.09138,-0.1086368 0.03249,-0.056857 0.03249,-0.1441723 0,-0.1147287 -0.07818,-0.1705701 -0.07716,-0.056857 -0.200014,-0.056857 -0.109652,0 -0.208136,0.03452 -0.09747,0.03452 -0.154325,0.070055 h -0.01015 V 5.2396198 q 0.07107,-0.027413 0.179708,-0.048734 0.109652,-0.022337 0.20712,-0.022337 0.218289,0 0.344186,0.1066063 0.126913,0.105591 0.126913,0.2792069 z M 19.10885,6.7107863 H 18.901729 V 6.4965585 h 0.207121 z"
         style="stroke-width:0.264583"
         id="path1020" />
      <path
         d="m 20.949585,7.0153757 h -1.33004 V 6.89354 h 1.33004 z"
         style="stroke-width:0.264583"
         id="path1022" />
      <path
         d="m 22.316176,6.6011342 q -0.05584,0.024367 -0.10153,0.045688 -0.04467,0.021321 -0.117775,0.044673 -0.06193,0.019291 -0.135034,0.03249 -0.07209,0.014214 -0.159402,0.014214 -0.164478,0 -0.299513,-0.045688 -0.134019,-0.046704 -0.233518,-0.1451876 -0.09747,-0.096453 -0.152295,-0.2446868 -0.05483,-0.1492488 -0.05483,-0.3462165 0,-0.1868149 0.05279,-0.334033 0.0528,-0.1472182 0.152295,-0.248748 0.09645,-0.098484 0.232503,-0.1502641 0.137066,-0.05178 0.303574,-0.05178 0.121836,0 0.242657,0.029444 0.121835,0.029444 0.270069,0.1035603 v 0.238595 h -0.01523 q -0.124881,-0.1045756 -0.247732,-0.1522946 -0.122851,-0.047719 -0.262962,-0.047719 -0.114729,0 -0.207121,0.037566 -0.09138,0.036551 -0.163463,0.1147286 -0.07006,0.076147 -0.109652,0.1929066 -0.03858,0.115744 -0.03858,0.2680387 0,0.1594017 0.04264,0.2741304 0.04366,0.1147286 0.111683,0.1868148 0.07107,0.075132 0.165493,0.1116827 0.09544,0.035535 0.201029,0.035535 0.145188,0 0.2721,-0.04975 0.126912,-0.04975 0.23758,-0.1492488 h 0.01421 z"
         style="stroke-width:0.264583"
         id="path1024" />
      <path
         d="m 23.723379,7.0153757 h -1.33004 V 6.89354 h 1.33004 z"
         style="stroke-width:0.264583"
         id="path1026" />
      <path
         d="m 24.739692,5.5543621 q 0,0.099499 -0.03554,0.1776771 -0.03553,0.077163 -0.09341,0.1370652 -0.05686,0.057872 -0.130973,0.1086369 -0.07412,0.050765 -0.157372,0.098484 v 0.228442 H 24.140666 V 5.9950014 q 0.06599,-0.037566 0.142142,-0.082239 0.07716,-0.044673 0.125897,-0.090362 0.05889,-0.052796 0.09138,-0.1086368 0.03249,-0.056857 0.03249,-0.1441723 0,-0.1147287 -0.07818,-0.1705701 -0.07716,-0.056857 -0.200014,-0.056857 -0.109652,0 -0.208136,0.03452 -0.09747,0.03452 -0.154325,0.070055 h -0.01015 V 5.2396198 q 0.07107,-0.027413 0.179708,-0.048734 0.109652,-0.022337 0.207121,-0.022337 0.218289,0 0.344186,0.1066063 0.126912,0.105591 0.126912,0.2792069 z M 24.338649,6.7107863 H 24.131528 V 6.4965585 h 0.207121 z"
         style="stroke-width:0.264583"
         id="path1028" />
      <path
         d="m 25.873779,5.5543621 q 0,0.099499 -0.03553,0.1776771 -0.03554,0.077163 -0.09341,0.1370652 -0.05686,0.057872 -0.130973,0.1086369 -0.07412,0.050765 -0.157371,0.098484 v 0.228442 H 25.274754 V 5.9950014 q 0.06599,-0.037566 0.142141,-0.082239 0.07716,-0.044673 0.125897,-0.090362 0.05889,-0.052796 0.09138,-0.1086368 0.03249,-0.056857 0.03249,-0.1441723 0,-0.1147287 -0.07818,-0.1705701 -0.07716,-0.056857 -0.200014,-0.056857 -0.109652,0 -0.208136,0.03452 -0.09747,0.03452 -0.154325,0.070055 h -0.01015 V 5.2396198 q 0.07107,-0.027413 0.179707,-0.048734 0.109653,-0.022337 0.207121,-0.022337 0.218289,0 0.344186,0.1066063 0.126912,0.105591 0.126912,0.2792069 z M 25.472737,6.7107863 H 25.265616 V 6.4965585 h 0.207121 z"
         style="stroke-width:0.264583"
         id="path1030" />
    </g>
    <g
       aria-label="??_D_??"
       id="text878-2"
       style="font-size:2.07933px;line-height:1.25;font-family:sans-serif;stroke-width:0.264583">
      <path
         d="m 18.300673,8.4810632 q 0,0.099499 -0.03554,0.1776771 -0.03553,0.077163 -0.09341,0.1370652 -0.05686,0.057872 -0.130974,0.1086369 -0.07412,0.050765 -0.157371,0.098484 v 0.228442 H 17.701647 V 8.9217024 q 0.06599,-0.037566 0.142142,-0.082239 0.07716,-0.044673 0.125896,-0.090362 0.05889,-0.052796 0.09138,-0.1086369 0.03249,-0.056857 0.03249,-0.1441723 0,-0.1147286 -0.07818,-0.17057 -0.07716,-0.056857 -0.200014,-0.056857 -0.109652,0 -0.208136,0.03452 -0.09747,0.03452 -0.154325,0.070055 h -0.01015 V 8.1663208 q 0.07107,-0.027413 0.179708,-0.048734 0.109652,-0.022337 0.20712,-0.022337 0.218289,0 0.344186,0.1066063 0.126913,0.1055909 0.126913,0.2792069 z M 17.89963,9.6374874 H 17.692509 V 9.4232596 h 0.207121 z"
         style="stroke-width:0.264583"
         id="path1033" />
      <path
         d="m 19.43476,8.4810632 q 0,0.099499 -0.03553,0.1776771 -0.03554,0.077163 -0.09341,0.1370652 -0.05686,0.057872 -0.130973,0.1086369 -0.07412,0.050765 -0.157371,0.098484 v 0.228442 H 18.835735 V 8.9217024 q 0.06599,-0.037566 0.142141,-0.082239 0.07716,-0.044673 0.125897,-0.090362 0.05889,-0.052796 0.09138,-0.1086369 0.03249,-0.056857 0.03249,-0.1441723 0,-0.1147286 -0.07818,-0.17057 -0.07716,-0.056857 -0.200014,-0.056857 -0.109652,0 -0.208136,0.03452 -0.09747,0.03452 -0.154325,0.070055 h -0.01015 V 8.1663208 q 0.07107,-0.027413 0.179707,-0.048734 0.109652,-0.022337 0.207121,-0.022337 0.218289,0 0.344186,0.1066063 0.126912,0.1055909 0.126912,0.2792069 z M 19.033718,9.6374874 H 18.826597 V 9.4232596 h 0.207121 z"
         style="stroke-width:0.264583"
         id="path1035" />
      <path
         d="M 20.874453,9.9420768 H 19.544412 V 9.820241 h 1.330041 z"
         style="stroke-width:0.264583"
         id="path1037" />
      <path
         d="m 22.350696,8.8831211 q 0,0.2061055 -0.09036,0.3736296 -0.08935,0.1675242 -0.238595,0.2599163 -0.10356,0.063964 -0.231488,0.092392 -0.126912,0.028428 -0.335048,0.028428 H 21.073451 V 8.1257089 h 0.377691 q 0.221335,0 0.351293,0.03249 0.130973,0.031474 0.221335,0.087316 0.154325,0.096453 0.240625,0.2568703 0.0863,0.1604171 0.0863,0.3807367 z m -0.210167,-0.00305 q 0,-0.1776771 -0.06193,-0.2995128 -0.06193,-0.1218358 -0.184784,-0.1918913 -0.08935,-0.050765 -0.189861,-0.070056 -0.100515,-0.020306 -0.240626,-0.020306 H 21.27448 v 1.1665772 h 0.188845 q 0.145188,0 0.252809,-0.021321 0.108637,-0.021321 0.198999,-0.079193 0.112698,-0.072086 0.168539,-0.1898607 0.05686,-0.1177746 0.05686,-0.2944364 z"
         style="stroke-width:0.264583"
         id="path1039" />
      <path
         d="M 23.79851,9.9420768 H 22.46847 V 9.820241 h 1.33004 z"
         style="stroke-width:0.264583"
         id="path1041" />
      <path
         d="m 24.814823,8.4810632 q 0,0.099499 -0.03553,0.1776771 -0.03554,0.077163 -0.09341,0.1370652 -0.05686,0.057872 -0.130973,0.1086369 -0.07412,0.050765 -0.157371,0.098484 v 0.228442 H 24.215797 V 8.9217024 q 0.066,-0.037566 0.142142,-0.082239 0.07716,-0.044673 0.125897,-0.090362 0.05889,-0.052796 0.09138,-0.1086369 0.03249,-0.056857 0.03249,-0.1441723 0,-0.1147286 -0.07818,-0.17057 -0.07716,-0.056857 -0.200013,-0.056857 -0.109652,0 -0.208136,0.03452 -0.09747,0.03452 -0.154326,0.070055 h -0.01015 V 8.1663208 q 0.07107,-0.027413 0.179707,-0.048734 0.109652,-0.022337 0.207121,-0.022337 0.218289,0 0.344186,0.1066063 0.126912,0.1055909 0.126912,0.2792069 z M 24.413781,9.6374874 H 24.20666 V 9.4232596 h 0.207121 z"
         style="stroke-width:0.264583"
         id="path1043" />
      <path
         d="m 25.948911,8.4810632 q 0,0.099499 -0.03553,0.1776771 -0.03554,0.077163 -0.09341,0.1370652 -0.05686,0.057872 -0.130973,0.1086369 -0.07412,0.050765 -0.157371,0.098484 v 0.228442 H 25.349885 V 8.9217024 q 0.066,-0.037566 0.142142,-0.082239 0.07716,-0.044673 0.125897,-0.090362 0.05889,-0.052796 0.09138,-0.1086369 0.03249,-0.056857 0.03249,-0.1441723 0,-0.1147286 -0.07818,-0.17057 -0.07716,-0.056857 -0.200014,-0.056857 -0.109652,0 -0.208136,0.03452 -0.09747,0.03452 -0.154325,0.070055 h -0.01015 V 8.1663208 q 0.07107,-0.027413 0.179707,-0.048734 0.109652,-0.022337 0.207121,-0.022337 0.218289,0 0.344186,0.1066063 0.126912,0.1055909 0.126912,0.2792069 z M 25.547869,9.6374874 H 25.340748 V 9.4232596 h 0.207121 z"
         style="stroke-width:0.264583"
         id="path1045" />
    </g>
    <g
       aria-label="??_E_??"
       id="text878-5"
       style="font-size:2.07933px;line-height:1.25;font-family:sans-serif;stroke-width:0.264583">
      <path
         d="m 18.444336,11.407764 q 0,0.0995 -0.03553,0.177677 -0.03554,0.07716 -0.09341,0.137065 -0.05686,0.05787 -0.130973,0.108637 -0.07412,0.05076 -0.157371,0.09848 v 0.228442 H 17.84531 v -0.309666 q 0.06599,-0.03757 0.142142,-0.08224 0.07716,-0.04467 0.125897,-0.09036 0.05889,-0.05279 0.09138,-0.108636 0.03249,-0.05686 0.03249,-0.144173 0,-0.114728 -0.07818,-0.17057 -0.07716,-0.05686 -0.200013,-0.05686 -0.109653,0 -0.208136,0.03452 -0.09747,0.03452 -0.154326,0.07005 h -0.01015 v -0.207121 q 0.07107,-0.02741 0.179708,-0.04873 0.109652,-0.02234 0.207121,-0.02234 0.218289,0 0.344186,0.106606 0.126912,0.105591 0.126912,0.279207 z m -0.401043,1.156424 h -0.20712 V 12.34996 h 0.20712 z"
         style="stroke-width:0.264583"
         id="path1048" />
      <path
         d="m 19.578424,11.407764 q 0,0.0995 -0.03554,0.177677 -0.03554,0.07716 -0.09341,0.137065 -0.05686,0.05787 -0.130974,0.108637 -0.07412,0.05076 -0.157371,0.09848 v 0.228442 h -0.181738 v -0.309666 q 0.06599,-0.03757 0.142142,-0.08224 0.07716,-0.04467 0.125897,-0.09036 0.05889,-0.05279 0.09138,-0.108636 0.03249,-0.05686 0.03249,-0.144173 0,-0.114728 -0.07818,-0.17057 -0.07716,-0.05686 -0.200014,-0.05686 -0.109652,0 -0.208136,0.03452 -0.09747,0.03452 -0.154325,0.07005 h -0.01015 v -0.207121 q 0.07107,-0.02741 0.179708,-0.04873 0.109652,-0.02234 0.20712,-0.02234 0.218289,0 0.344186,0.106606 0.126913,0.105591 0.126913,0.279207 z m -0.401043,1.156424 H 18.97026 V 12.34996 h 0.207121 z"
         style="stroke-width:0.264583"
         id="path1050" />
      <path
         d="m 21.018116,12.868777 h -1.33004 v -0.121835 h 1.33004 z"
         style="stroke-width:0.264583"
         id="path1052" />
      <path
         d="M 22.213122,12.564188 H 21.217114 V 11.05241 h 0.996008 v 0.178692 h -0.794979 v 0.414241 h 0.794979 v 0.178693 h -0.794979 v 0.56146 h 0.794979 z"
         style="stroke-width:0.264583"
         id="path1054" />
      <path
         d="m 23.654845,12.868777 h -1.330041 v -0.121835 h 1.330041 z"
         style="stroke-width:0.264583"
         id="path1056" />
      <path
         d="m 24.671158,11.407764 q 0,0.0995 -0.03554,0.177677 -0.03554,0.07716 -0.09341,0.137065 -0.05686,0.05787 -0.130973,0.108637 -0.07412,0.05076 -0.157372,0.09848 v 0.228442 h -0.181738 v -0.309666 q 0.06599,-0.03757 0.142142,-0.08224 0.07716,-0.04467 0.125897,-0.09036 0.05889,-0.05279 0.09138,-0.108636 0.03249,-0.05686 0.03249,-0.144173 0,-0.114728 -0.07818,-0.17057 -0.07716,-0.05686 -0.200014,-0.05686 -0.109652,0 -0.208136,0.03452 -0.09747,0.03452 -0.154325,0.07005 h -0.01015 v -0.207121 q 0.07107,-0.02741 0.179708,-0.04873 0.109652,-0.02234 0.207121,-0.02234 0.218289,0 0.344186,0.106606 0.126912,0.105591 0.126912,0.279207 z m -0.401043,1.156424 H 24.062994 V 12.34996 h 0.207121 z"
         style="stroke-width:0.264583"
         id="path1058" />
      <path
         d="m 25.805245,11.407764 q 0,0.0995 -0.03553,0.177677 -0.03553,0.07716 -0.09341,0.137065 -0.05686,0.05787 -0.130974,0.108637 -0.07412,0.05076 -0.157371,0.09848 v 0.228442 H 25.20622 v -0.309666 q 0.06599,-0.03757 0.142141,-0.08224 0.07716,-0.04467 0.125897,-0.09036 0.05889,-0.05279 0.09138,-0.108636 0.03249,-0.05686 0.03249,-0.144173 0,-0.114728 -0.07818,-0.17057 -0.07716,-0.05686 -0.200014,-0.05686 -0.109652,0 -0.208136,0.03452 -0.09747,0.03452 -0.154325,0.07005 h -0.01015 v -0.207121 q 0.07107,-0.02741 0.179707,-0.04873 0.109653,-0.02234 0.207121,-0.02234 0.218289,0 0.344186,0.106606 0.126912,0.105591 0.126912,0.279207 z m -0.401042,1.156424 H 25.197082 V 12.34996 h 0.207121 z"
         style="stroke-width:0.264583"
         id="path1060" />
    </g>
    <g
       aria-label="??_C_??"
       id="text878-29"
       style="font-size:2.07933px;line-height:1.25;font-family:sans-serif;stroke-width:0.264583">
      <path
         d="m 18.375805,14.334464 q 0,0.0995 -0.03553,0.177677 -0.03554,0.07716 -0.09341,0.137066 -0.05686,0.05787 -0.130973,0.108637 -0.07412,0.05076 -0.157371,0.09848 v 0.228442 h -0.181739 v -0.309665 q 0.06599,-0.03757 0.142142,-0.08224 0.07716,-0.04467 0.125897,-0.09036 0.05889,-0.05279 0.09138,-0.108637 0.03249,-0.05686 0.03249,-0.144172 0,-0.114729 -0.07818,-0.17057 -0.07716,-0.05686 -0.200013,-0.05686 -0.109653,0 -0.208136,0.03452 -0.09747,0.03452 -0.154326,0.07006 h -0.01015 v -0.207121 q 0.07107,-0.02741 0.179708,-0.04873 0.109652,-0.02234 0.207121,-0.02234 0.218289,0 0.344186,0.106606 0.126912,0.105591 0.126912,0.279207 z m -0.401043,1.156425 h -0.20712 v -0.214228 h 0.20712 z"
         style="stroke-width:0.264583"
         id="path1063" />
      <path
         d="m 19.509893,14.334464 q 0,0.0995 -0.03554,0.177677 -0.03554,0.07716 -0.09341,0.137066 -0.05686,0.05787 -0.130974,0.108637 -0.07412,0.05076 -0.157371,0.09848 v 0.228442 h -0.181738 v -0.309665 q 0.06599,-0.03757 0.142142,-0.08224 0.07716,-0.04467 0.125897,-0.09036 0.05889,-0.05279 0.09138,-0.108637 0.03249,-0.05686 0.03249,-0.144172 0,-0.114729 -0.07818,-0.17057 -0.07716,-0.05686 -0.200014,-0.05686 -0.109652,0 -0.208136,0.03452 -0.09747,0.03452 -0.154325,0.07006 h -0.01015 v -0.207121 q 0.07107,-0.02741 0.179708,-0.04873 0.109652,-0.02234 0.20712,-0.02234 0.218289,0 0.344186,0.106606 0.126913,0.105591 0.126913,0.279207 z m -0.401043,1.156425 h -0.207121 v -0.214228 h 0.207121 z"
         style="stroke-width:0.264583"
         id="path1065" />
      <path
         d="m 20.949585,15.795478 h -1.33004 v -0.121836 h 1.33004 z"
         style="stroke-width:0.264583"
         id="path1067" />
      <path
         d="m 22.316176,15.381236 q -0.05584,0.02437 -0.10153,0.04569 -0.04467,0.02132 -0.117775,0.04467 -0.06193,0.01929 -0.135034,0.03249 -0.07209,0.01422 -0.159402,0.01422 -0.164478,0 -0.299513,-0.04569 -0.134019,-0.0467 -0.233518,-0.145187 -0.09747,-0.09645 -0.152295,-0.244687 -0.05483,-0.149249 -0.05483,-0.346217 0,-0.186814 0.05279,-0.334033 0.0528,-0.147218 0.152295,-0.248748 0.09645,-0.09848 0.232503,-0.150264 0.137066,-0.05178 0.303574,-0.05178 0.121836,0 0.242657,0.02944 0.121835,0.02944 0.270069,0.10356 v 0.238595 h -0.01523 q -0.124881,-0.104576 -0.247732,-0.152295 -0.122851,-0.04772 -0.262962,-0.04772 -0.114729,0 -0.207121,0.03757 -0.09138,0.03655 -0.163463,0.114729 -0.07006,0.07615 -0.109652,0.192907 -0.03858,0.115744 -0.03858,0.268038 0,0.159402 0.04264,0.274131 0.04366,0.114728 0.111683,0.186815 0.07107,0.07513 0.165493,0.111682 0.09544,0.03554 0.201029,0.03554 0.145188,0 0.2721,-0.04975 0.126912,-0.04975 0.23758,-0.149249 h 0.01421 z"
         style="stroke-width:0.264583"
         id="path1069" />
      <path
         d="m 23.723379,15.795478 h -1.33004 v -0.121836 h 1.33004 z"
         style="stroke-width:0.264583"
         id="path1071" />
      <path
         d="m 24.739692,14.334464 q 0,0.0995 -0.03554,0.177677 -0.03553,0.07716 -0.09341,0.137066 -0.05686,0.05787 -0.130973,0.108637 -0.07412,0.05076 -0.157372,0.09848 v 0.228442 h -0.181738 v -0.309665 q 0.06599,-0.03757 0.142142,-0.08224 0.07716,-0.04467 0.125897,-0.09036 0.05889,-0.05279 0.09138,-0.108637 0.03249,-0.05686 0.03249,-0.144172 0,-0.114729 -0.07818,-0.17057 -0.07716,-0.05686 -0.200014,-0.05686 -0.109652,0 -0.208136,0.03452 -0.09747,0.03452 -0.154325,0.07006 h -0.01015 v -0.207121 q 0.07107,-0.02741 0.179708,-0.04873 0.109652,-0.02234 0.207121,-0.02234 0.218289,0 0.344186,0.106606 0.126912,0.105591 0.126912,0.279207 z m -0.401043,1.156425 h -0.207121 v -0.214228 h 0.207121 z"
         style="stroke-width:0.264583"
         id="path1073" />
      <path
         d="m 25.873779,14.334464 q 0,0.0995 -0.03553,0.177677 -0.03554,0.07716 -0.09341,0.137066 -0.05686,0.05787 -0.130973,0.108637 -0.07412,0.05076 -0.157371,0.09848 v 0.228442 h -0.181738 v -0.309665 q 0.06599,-0.03757 0.142141,-0.08224 0.07716,-0.04467 0.125897,-0.09036 0.05889,-0.05279 0.09138,-0.108637 0.03249,-0.05686 0.03249,-0.144172 0,-0.114729 -0.07818,-0.17057 -0.07716,-0.05686 -0.200014,-0.05686 -0.109652,0 -0.208136,0.03452 -0.09747,0.03452 -0.154325,0.07006 h -0.01015 v -0.207121 q 0.07107,-0.02741 0.179707,-0.04873 0.109653,-0.02234 0.207121,-0.02234 0.218289,0 0.344186,0.106606 0.126912,0.105591 0.126912,0.279207 z m -0.401042,1.156425 h -0.207121 v -0.214228 h 0.207121 z"
         style="stroke-width:0.264583"
         id="path1075" />
    </g>
    <g
       aria-label="??_C_??"
       id="text878-3"
       style="font-size:2.07933px;line-height:1.25;font-family:sans-serif;stroke-width:0.264583">
      <path
         d="m 18.375805,17.261169 q 0,0.0995 -0.03553,0.177677 -0.03554,0.07716 -0.09341,0.137065 -0.05686,0.05787 -0.130973,0.108637 -0.07412,0.05077 -0.157371,0.09848 v 0.228442 h -0.181739 v -0.309666 q 0.06599,-0.03757 0.142142,-0.08224 0.07716,-0.04467 0.125897,-0.09036 0.05889,-0.05279 0.09138,-0.108636 0.03249,-0.05686 0.03249,-0.144173 0,-0.114728 -0.07818,-0.17057 -0.07716,-0.05686 -0.200013,-0.05686 -0.109653,0 -0.208136,0.03452 -0.09747,0.03452 -0.154326,0.07005 h -0.01015 v -0.207121 q 0.07107,-0.02741 0.179708,-0.04873 0.109652,-0.02234 0.207121,-0.02234 0.218289,0 0.344186,0.106606 0.126912,0.105591 0.126912,0.279207 z m -0.401043,1.156424 h -0.20712 v -0.214228 h 0.20712 z"
         style="stroke-width:0.264583"
         id="path1078" />
      <path
         d="m 19.509893,17.261169 q 0,0.0995 -0.03554,0.177677 -0.03554,0.07716 -0.09341,0.137065 -0.05686,0.05787 -0.130974,0.108637 -0.07412,0.05077 -0.157371,0.09848 v 0.228442 h -0.181738 v -0.309666 q 0.06599,-0.03757 0.142142,-0.08224 0.07716,-0.04467 0.125897,-0.09036 0.05889,-0.05279 0.09138,-0.108636 0.03249,-0.05686 0.03249,-0.144173 0,-0.114728 -0.07818,-0.17057 -0.07716,-0.05686 -0.200014,-0.05686 -0.109652,0 -0.208136,0.03452 -0.09747,0.03452 -0.154325,0.07005 h -0.01015 v -0.207121 q 0.07107,-0.02741 0.179708,-0.04873 0.109652,-0.02234 0.20712,-0.02234 0.218289,0 0.344186,0.106606 0.126913,0.105591 0.126913,0.279207 z m -0.401043,1.156424 h -0.207121 v -0.214228 h 0.207121 z"
         style="stroke-width:0.264583"
         id="path1080" />
      <path
         d="m 20.949585,18.722182 h -1.33004 v -0.121835 h 1.33004 z"
         style="stroke-width:0.264583"
         id="path1082" />
      <path
         d="m 22.316176,18.307941 q -0.05584,0.02437 -0.10153,0.04569 -0.04467,0.02132 -0.117775,0.04467 -0.06193,0.01929 -0.135034,0.03249 -0.07209,0.01421 -0.159402,0.01421 -0.164478,0 -0.299513,-0.04569 -0.134019,-0.0467 -0.233518,-0.145188 -0.09747,-0.09645 -0.152295,-0.244687 -0.05483,-0.149249 -0.05483,-0.346216 0,-0.186815 0.05279,-0.334033 0.0528,-0.147218 0.152295,-0.248748 0.09645,-0.09848 0.232503,-0.150264 0.137066,-0.05178 0.303574,-0.05178 0.121836,0 0.242657,0.02944 0.121835,0.02944 0.270069,0.10356 V 17.25 h -0.01523 q -0.124881,-0.104575 -0.247732,-0.152294 -0.122851,-0.04772 -0.262962,-0.04772 -0.114729,0 -0.207121,0.03757 -0.09138,0.03655 -0.163463,0.114728 -0.07006,0.07615 -0.109652,0.192907 -0.03858,0.115744 -0.03858,0.268039 0,0.159401 0.04264,0.27413 0.04366,0.114729 0.111683,0.186815 0.07107,0.07513 0.165493,0.111683 0.09544,0.03553 0.201029,0.03553 0.145188,0 0.2721,-0.04975 0.126912,-0.04975 0.23758,-0.149249 h 0.01421 z"
         style="stroke-width:0.264583"
         id="path1084" />
      <path
         d="m 23.723379,18.722182 h -1.33004 v -0.121835 h 1.33004 z"
         style="stroke-width:0.264583"
         id="path1086" />
      <path
         d="m 24.739692,17.261169 q 0,0.0995 -0.03554,0.177677 -0.03553,0.07716 -0.09341,0.137065 -0.05686,0.05787 -0.130973,0.108637 -0.07412,0.05077 -0.157372,0.09848 v 0.228442 h -0.181738 v -0.309666 q 0.06599,-0.03757 0.142142,-0.08224 0.07716,-0.04467 0.125897,-0.09036 0.05889,-0.05279 0.09138,-0.108636 0.03249,-0.05686 0.03249,-0.144173 0,-0.114728 -0.07818,-0.17057 -0.07716,-0.05686 -0.200014,-0.05686 -0.109652,0 -0.208136,0.03452 -0.09747,0.03452 -0.154325,0.07005 h -0.01015 v -0.207121 q 0.07107,-0.02741 0.179708,-0.04873 0.109652,-0.02234 0.207121,-0.02234 0.218289,0 0.344186,0.106606 0.126912,0.105591 0.126912,0.279207 z m -0.401043,1.156424 h -0.207121 v -0.214228 h 0.207121 z"
         style="stroke-width:0.264583"
         id="path1088" />
      <path
         d="m 25.873779,17.261169 q 0,0.0995 -0.03553,0.177677 -0.03554,0.07716 -0.09341,0.137065 -0.05686,0.05787 -0.130973,0.108637 -0.07412,0.05077 -0.157371,0.09848 v 0.228442 h -0.181738 v -0.309666 q 0.06599,-0.03757 0.142141,-0.08224 0.07716,-0.04467 0.125897,-0.09036 0.05889,-0.05279 0.09138,-0.108636 0.03249,-0.05686 0.03249,-0.144173 0,-0.114728 -0.07818,-0.17057 -0.07716,-0.05686 -0.200014,-0.05686 -0.109652,0 -0.208136,0.03452 -0.09747,0.03452 -0.154325,0.07005 h -0.01015 v -0.207121 q 0.07107,-0.02741 0.179707,-0.04873 0.109653,-0.02234 0.207121,-0.02234 0.218289,0 0.344186,0.106606 0.126912,0.105591 0.126912,0.279207 z m -0.401042,1.156424 h -0.207121 v -0.214228 h 0.207121 z"
         style="stroke-width:0.264583"
         id="path1090" />
    </g>
    <g
       aria-label="??_E_??"
       id="text878-29-9"
       style="font-size:2.07933px;line-height:1.25;font-family:sans-serif;stroke-width:0.264583">
      <path
         d="m 18.444336,20.187875 q 0,0.0995 -0.03553,0.177677 -0.03554,0.07716 -0.09341,0.137065 -0.05686,0.05787 -0.130973,0.108637 -0.07412,0.05077 -0.157371,0.09848 V 20.93818 H 17.84531 v -0.309666 q 0.06599,-0.03757 0.142142,-0.08224 0.07716,-0.04467 0.125897,-0.09036 0.05889,-0.0528 0.09138,-0.108637 0.03249,-0.05686 0.03249,-0.144172 0,-0.114729 -0.07818,-0.17057 -0.07716,-0.05686 -0.200013,-0.05686 -0.109653,0 -0.208136,0.03452 -0.09747,0.03452 -0.154326,0.07006 h -0.01015 v -0.207121 q 0.07107,-0.02741 0.179708,-0.04874 0.109652,-0.02234 0.207121,-0.02234 0.218289,0 0.344186,0.106606 0.126912,0.105591 0.126912,0.279207 z m -0.401043,1.156424 h -0.20712 v -0.214228 h 0.20712 z"
         style="stroke-width:0.264583"
         id="path1093" />
      <path
         d="m 19.578424,20.187875 q 0,0.0995 -0.03554,0.177677 -0.03554,0.07716 -0.09341,0.137065 -0.05686,0.05787 -0.130974,0.108637 -0.07412,0.05077 -0.157371,0.09848 v 0.228442 h -0.181738 v -0.309666 q 0.06599,-0.03757 0.142142,-0.08224 0.07716,-0.04467 0.125897,-0.09036 0.05889,-0.0528 0.09138,-0.108637 0.03249,-0.05686 0.03249,-0.144172 0,-0.114729 -0.07818,-0.17057 -0.07716,-0.05686 -0.200014,-0.05686 -0.109652,0 -0.208136,0.03452 -0.09747,0.03452 -0.154325,0.07006 h -0.01015 v -0.207121 q 0.07107,-0.02741 0.179708,-0.04874 0.109652,-0.02234 0.20712,-0.02234 0.218289,0 0.344186,0.106606 0.126913,0.105591 0.126913,0.279207 z m -0.401043,1.156424 H 18.97026 v -0.214228 h 0.207121 z"
         style="stroke-width:0.264583"
         id="path1095" />
      <path
         d="m 21.018116,21.648889 h -1.33004 v -0.121836 h 1.33004 z"
         style="stroke-width:0.264583"
         id="path1097" />
      <path
         d="m 22.213122,21.344299 h -0.996008 v -1.511778 h 0.996008 v 0.178692 h -0.794979 v 0.414242 h 0.794979 v 0.178692 h -0.794979 v 0.56146 h 0.794979 z"
         style="stroke-width:0.264583"
         id="path1099" />
      <path
         d="m 23.654845,21.648889 h -1.330041 v -0.121836 h 1.330041 z"
         style="stroke-width:0.264583"
         id="path1101" />
      <path
         d="m 24.671158,20.187875 q 0,0.0995 -0.03554,0.177677 -0.03554,0.07716 -0.09341,0.137065 -0.05686,0.05787 -0.130973,0.108637 -0.07412,0.05077 -0.157372,0.09848 v 0.228442 h -0.181738 v -0.309666 q 0.06599,-0.03757 0.142142,-0.08224 0.07716,-0.04467 0.125897,-0.09036 0.05889,-0.0528 0.09138,-0.108637 0.03249,-0.05686 0.03249,-0.144172 0,-0.114729 -0.07818,-0.17057 -0.07716,-0.05686 -0.200014,-0.05686 -0.109652,0 -0.208136,0.03452 -0.09747,0.03452 -0.154325,0.07006 h -0.01015 v -0.207121 q 0.07107,-0.02741 0.179708,-0.04874 0.109652,-0.02234 0.207121,-0.02234 0.218289,0 0.344186,0.106606 0.126912,0.105591 0.126912,0.279207 z m -0.401043,1.156424 h -0.207121 v -0.214228 h 0.207121 z"
         style="stroke-width:0.264583"
         id="path1103" />
      <path
         d="m 25.805245,20.187875 q 0,0.0995 -0.03553,0.177677 -0.03553,0.07716 -0.09341,0.137065 -0.05686,0.05787 -0.130974,0.108637 -0.07412,0.05077 -0.157371,0.09848 V 20.93818 H 25.20622 v -0.309666 q 0.06599,-0.03757 0.142141,-0.08224 0.07716,-0.04467 0.125897,-0.09036 0.05889,-0.0528 0.09138,-0.108637 0.03249,-0.05686 0.03249,-0.144172 0,-0.114729 -0.07818,-0.17057 -0.07716,-0.05686 -0.200014,-0.05686 -0.109652,0 -0.208136,0.03452 -0.09747,0.03452 -0.154325,0.07006 h -0.01015 v -0.207121 q 0.07107,-0.02741 0.179707,-0.04874 0.109653,-0.02234 0.207121,-0.02234 0.218289,0 0.344186,0.106606 0.126912,0.105591 0.126912,0.279207 z m -0.401042,1.156424 h -0.207121 v -0.214228 h 0.207121 z"
         style="stroke-width:0.264583"
         id="path1105" />
    </g>
    <g
       aria-label="??_E_??"
       id="text878-3-7"
       style="font-size:2.07933px;line-height:1.25;font-family:sans-serif;stroke-width:0.264583">
      <path
         d="m 18.444336,23.114579 q 0,0.0995 -0.03553,0.177678 -0.03554,0.07716 -0.09341,0.137065 -0.05686,0.05787 -0.130973,0.108637 -0.07412,0.05076 -0.157371,0.09848 v 0.228442 H 17.84531 v -0.309666 q 0.06599,-0.03757 0.142142,-0.08224 0.07716,-0.04467 0.125897,-0.09036 0.05889,-0.05279 0.09138,-0.108637 0.03249,-0.05686 0.03249,-0.144172 0,-0.114729 -0.07818,-0.17057 -0.07716,-0.05686 -0.200013,-0.05686 -0.109653,0 -0.208136,0.03452 -0.09747,0.03452 -0.154326,0.07006 h -0.01015 v -0.207121 q 0.07107,-0.02741 0.179708,-0.04873 0.109652,-0.02234 0.207121,-0.02234 0.218289,0 0.344186,0.106607 0.126912,0.105591 0.126912,0.279206 z m -0.401043,1.156425 h -0.20712 v -0.214228 h 0.20712 z"
         style="stroke-width:0.264583"
         id="path1108" />
      <path
         d="m 19.578424,23.114579 q 0,0.0995 -0.03554,0.177678 -0.03554,0.07716 -0.09341,0.137065 -0.05686,0.05787 -0.130974,0.108637 -0.07412,0.05076 -0.157371,0.09848 v 0.228442 h -0.181738 v -0.309666 q 0.06599,-0.03757 0.142142,-0.08224 0.07716,-0.04467 0.125897,-0.09036 0.05889,-0.05279 0.09138,-0.108637 0.03249,-0.05686 0.03249,-0.144172 0,-0.114729 -0.07818,-0.17057 -0.07716,-0.05686 -0.200014,-0.05686 -0.109652,0 -0.208136,0.03452 -0.09747,0.03452 -0.154325,0.07006 h -0.01015 v -0.207121 q 0.07107,-0.02741 0.179708,-0.04873 0.109652,-0.02234 0.20712,-0.02234 0.218289,0 0.344186,0.106607 0.126913,0.105591 0.126913,0.279206 z m -0.401043,1.156425 H 18.97026 v -0.214228 h 0.207121 z"
         style="stroke-width:0.264583"
         id="path1110" />
      <path
         d="m 21.018116,24.575593 h -1.33004 v -0.121836 h 1.33004 z"
         style="stroke-width:0.264583"
         id="path1112" />
      <path
         d="m 22.213122,24.271004 h -0.996008 v -1.511779 h 0.996008 v 0.178693 h -0.794979 v 0.414241 h 0.794979 v 0.178693 h -0.794979 v 0.561459 h 0.794979 z"
         style="stroke-width:0.264583"
         id="path1114" />
      <path
         d="m 23.654845,24.575593 h -1.330041 v -0.121836 h 1.330041 z"
         style="stroke-width:0.264583"
         id="path1116" />
      <path
         d="m 24.671158,23.114579 q 0,0.0995 -0.03554,0.177678 -0.03554,0.07716 -0.09341,0.137065 -0.05686,0.05787 -0.130973,0.108637 -0.07412,0.05076 -0.157372,0.09848 v 0.228442 h -0.181738 v -0.309666 q 0.06599,-0.03757 0.142142,-0.08224 0.07716,-0.04467 0.125897,-0.09036 0.05889,-0.05279 0.09138,-0.108637 0.03249,-0.05686 0.03249,-0.144172 0,-0.114729 -0.07818,-0.17057 -0.07716,-0.05686 -0.200014,-0.05686 -0.109652,0 -0.208136,0.03452 -0.09747,0.03452 -0.154325,0.07006 h -0.01015 v -0.207121 q 0.07107,-0.02741 0.179708,-0.04873 0.109652,-0.02234 0.207121,-0.02234 0.218289,0 0.344186,0.106607 0.126912,0.105591 0.126912,0.279206 z m -0.401043,1.156425 h -0.207121 v -0.214228 h 0.207121 z"
         style="stroke-width:0.264583"
         id="path1118" />
      <path
         d="m 25.805245,23.114579 q 0,0.0995 -0.03553,0.177678 -0.03553,0.07716 -0.09341,0.137065 -0.05686,0.05787 -0.130974,0.108637 -0.07412,0.05076 -0.157371,0.09848 v 0.228442 H 25.20622 v -0.309666 q 0.06599,-0.03757 0.142141,-0.08224 0.07716,-0.04467 0.125897,-0.09036 0.05889,-0.05279 0.09138,-0.108637 0.03249,-0.05686 0.03249,-0.144172 0,-0.114729 -0.07818,-0.17057 -0.07716,-0.05686 -0.200014,-0.05686 -0.109652,0 -0.208136,0.03452 -0.09747,0.03452 -0.154325,0.07006 h -0.01015 v -0.207121 q 0.07107,-0.02741 0.179707,-0.04873 0.109653,-0.02234 0.207121,-0.02234 0.218289,0 0.344186,0.106607 0.126912,0.105591 0.126912,0.279206 z m -0.401042,1.156425 h -0.207121 v -0.214228 h 0.207121 z"
         style="stroke-width:0.264583"
         id="path1120" />
    </g>
    <g
       aria-label="C"
       id="text878-35"
       style="font-size:2.07933px;line-height:1.25;font-family:sans-serif;stroke-width:0.264583">
      <path
         d="m 72.064454,6.6011337 q -0.05584,0.024367 -0.10153,0.045688 -0.04467,0.021321 -0.117774,0.044673 -0.06193,0.019291 -0.135035,0.032489 -0.07209,0.014214 -0.159402,0.014214 -0.164478,0 -0.299513,-0.045688 -0.134019,-0.046704 -0.233518,-0.1451876 -0.09747,-0.096453 -0.152295,-0.2446868 -0.05483,-0.1492487 -0.05483,-0.3462165 0,-0.1868148 0.0528,-0.334033 0.0528,-0.1472182 0.152294,-0.248748 0.09645,-0.098484 0.232503,-0.1502641 0.137066,-0.05178 0.303575,-0.05178 0.121835,0 0.242656,0.029444 0.121835,0.029444 0.270069,0.1035604 v 0.238595 h -0.01523 Q 71.924343,5.4386177 71.801492,5.3908987 71.678641,5.3431797 71.53853,5.3431797 q -0.114729,0 -0.207121,0.037566 -0.09138,0.036551 -0.163463,0.1147287 -0.07006,0.076147 -0.109652,0.1929065 -0.03858,0.115744 -0.03858,0.2680387 0,0.1594017 0.04264,0.2741304 0.04366,0.1147286 0.111683,0.1868148 0.07107,0.075132 0.165493,0.1116828 0.09544,0.035535 0.201029,0.035535 0.145188,0 0.2721,-0.04975 0.126912,-0.04975 0.23758,-0.1492488 h 0.01421 z"
         style="stroke-width:0.264583"
         id="path1186" />
    </g>
    <g
       aria-label="D"
       id="text878-2-0"
       style="font-size:2.07933px;line-height:1.25;font-family:sans-serif;stroke-width:0.264583">
      <path
         d="m 72.076129,8.8831202 q 0,0.2061054 -0.09036,0.3736296 -0.08935,0.1675241 -0.238595,0.2599162 -0.10356,0.063964 -0.231488,0.092392 -0.126912,0.028428 -0.335048,0.028428 H 70.798885 V 8.125708 h 0.377691 q 0.221334,0 0.351293,0.03249 0.130973,0.031474 0.221335,0.087316 0.154325,0.096453 0.240625,0.2568704 0.0863,0.160417 0.0863,0.3807367 z m -0.210166,-0.00305 q 0,-0.1776771 -0.06193,-0.2995129 -0.06193,-0.1218357 -0.184785,-0.1918913 -0.08935,-0.050765 -0.18986,-0.070056 -0.100515,-0.020306 -0.240626,-0.020306 h -0.188845 v 1.1665772 h 0.188845 q 0.145188,0 0.252809,-0.021321 0.108637,-0.021321 0.198999,-0.079193 0.112698,-0.072086 0.168539,-0.1898607 0.05686,-0.1177745 0.05686,-0.2944363 z"
         style="stroke-width:0.264583"
         id="path1189" />
    </g>
    <g
       aria-label="E"
       id="text878-5-7"
       style="font-size:2.07933px;line-height:1.25;font-family:sans-serif;stroke-width:0.264583">
      <path
         d="M 71.935509,12.564188 H 70.939502 V 11.05241 h 0.996007 v 0.178692 h -0.794978 v 0.414241 h 0.794978 v 0.178693 h -0.794978 v 0.56146 h 0.794978 z"
         style="stroke-width:0.264583"
         id="path1192" />
    </g>
    <g
       aria-label="C"
       id="text878-29-2"
       style="font-size:2.07933px;line-height:1.25;font-family:sans-serif;stroke-width:0.264583">
      <path
         d="m 72.064454,15.381236 q -0.05584,0.02437 -0.10153,0.04569 -0.04467,0.02132 -0.117774,0.04467 -0.06193,0.01929 -0.135035,0.03249 -0.07209,0.01422 -0.159402,0.01422 -0.164478,0 -0.299513,-0.04569 -0.134019,-0.0467 -0.233518,-0.145187 -0.09747,-0.09645 -0.152295,-0.244687 -0.05483,-0.149249 -0.05483,-0.346217 0,-0.186814 0.0528,-0.334033 0.0528,-0.147218 0.152294,-0.248748 0.09645,-0.09848 0.232503,-0.150264 0.137066,-0.05178 0.303575,-0.05178 0.121835,0 0.242656,0.02944 0.121835,0.02944 0.270069,0.10356 v 0.238595 h -0.01523 q -0.124881,-0.104576 -0.247732,-0.152295 -0.122851,-0.04772 -0.262962,-0.04772 -0.114729,0 -0.207121,0.03757 -0.09138,0.03655 -0.163463,0.114729 -0.07006,0.07615 -0.109652,0.192907 -0.03858,0.115744 -0.03858,0.268038 0,0.159402 0.04264,0.274131 0.04366,0.114728 0.111683,0.186815 0.07107,0.07513 0.165493,0.111682 0.09544,0.03554 0.201029,0.03554 0.145188,0 0.2721,-0.04975 0.126912,-0.04975 0.23758,-0.149249 h 0.01421 z"
         style="stroke-width:0.264583"
         id="path1195" />
    </g>
    <g
       aria-label="C"
       id="text878-3-3"
       style="font-size:2.07933px;line-height:1.25;font-family:sans-serif;stroke-width:0.264583">
      <path
         d="m 72.064454,18.307939 q -0.05584,0.02437 -0.10153,0.04569 -0.04467,0.02132 -0.117774,0.04467 -0.06193,0.01929 -0.135035,0.03249 -0.07209,0.01421 -0.159402,0.01421 -0.164478,0 -0.299513,-0.04569 -0.134019,-0.0467 -0.233518,-0.145188 -0.09747,-0.09645 -0.152295,-0.244687 -0.05483,-0.149248 -0.05483,-0.346216 0,-0.186815 0.0528,-0.334033 0.0528,-0.147218 0.152294,-0.248748 0.09645,-0.09848 0.232503,-0.150264 0.137066,-0.05178 0.303575,-0.05178 0.121835,0 0.242656,0.02944 0.121835,0.02944 0.270069,0.103561 v 0.238595 h -0.01523 q -0.124881,-0.104576 -0.247732,-0.152295 -0.122851,-0.04772 -0.262962,-0.04772 -0.114729,0 -0.207121,0.03757 -0.09138,0.03655 -0.163463,0.114729 -0.07006,0.07615 -0.109652,0.192906 -0.03858,0.115744 -0.03858,0.268039 0,0.159402 0.04264,0.27413 0.04366,0.114729 0.111683,0.186815 0.07107,0.07513 0.165493,0.111683 0.09544,0.03554 0.201029,0.03554 0.145188,0 0.2721,-0.04975 0.126912,-0.04975 0.23758,-0.149249 h 0.01421 z"
         style="stroke-width:0.264583"
         id="path1198" />
    </g>
    <g
       aria-label="E"
       id="text878-29-9-7"
       style="font-size:2.07933px;line-height:1.25;font-family:sans-serif;stroke-width:0.264583">
      <path
         d="m 71.935509,21.344299 h -0.996007 v -1.511778 h 0.996007 v 0.178692 h -0.794978 v 0.414242 h 0.794978 v 0.178692 h -0.794978 v 0.56146 h 0.794978 z"
         style="stroke-width:0.264583"
         id="path1201" />
    </g>
    <g
       aria-label="E"
       id="text878-3-7-1"
       style="font-size:2.07933px;line-height:1.25;font-family:sans-serif;stroke-width:0.264583">
      <path
         d="m 71.935509,24.271004 h -0.996007 v -1.511779 h 0.996007 v 0.178693 h -0.794978 v 0.414241 h 0.794978 v 0.178693 h -0.794978 v 0.561459 h 0.794978 z"
         style="stroke-width:0.264583"
         id="path1204" />
    </g>
  </g>
</svg>
